<?xml version="1.0" encoding="UTF-8" standalone="no"?>
<!DOCTYPE svg PUBLIC "-//W3C//DTD SVG 1.1//EN" "http://www.w3.org/Graphics/SVG/1.1/DTD/svg11.dtd">
<svg width="100%" height="100%" viewBox="0 0 173 155" version="1.1" xmlns="http://www.w3.org/2000/svg" xmlns:xlink="http://www.w3.org/1999/xlink" xml:space="preserve" xmlns:serif="http://www.serif.com/" style="fill-rule:evenodd;clip-rule:evenodd;stroke-linejoin:round;stroke-miterlimit:2;">
    <g transform="matrix(1,0,0,1,-215.007869,-426.567829)">
        <path d="M339.903,436.264C335.896,440.618 332.536,445.528 327.938,449.345C320.487,455.53 308.301,460.177 299.567,453.398C295.859,450.521 292.553,445.874 292.734,440.93C292.82,438.676 292.893,435.773 294.082,433.786C297.028,428.873 302.049,428.318 306.256,430.685C309.939,432.762 314.051,436.84 312.675,441.7C310.652,448.856 303.16,446.894 301.153,442.982C302.016,442.938 302.923,442.623 303.722,442.004C305.499,440.623 306.044,438.33 304.924,436.89C303.809,435.446 301.456,435.393 299.674,436.769C299.248,437.097 298.898,437.482 298.617,437.889C296.517,440.126 294.921,443.515 297.251,446.259C300.596,450.19 305.186,450.965 309.735,448.408C313.184,446.472 317.775,443.074 317.277,438.495C315.994,426.703 301.716,422.835 293.307,430.62C283.509,439.692 289.117,454.697 300.873,458.621C313.13,462.7 326.292,454.715 334.57,446.348C336.822,444.073 339.326,441.114 341.646,439.093C346.395,434.952 351.261,432.153 357.41,431.426C365.944,430.411 375.85,433.613 382.603,438.486C385.691,440.707 389.377,440.696 383.822,436.412C377.188,431.3 364.117,427.025 357.774,427.771C349.012,428.805 344.185,431.613 339.903,436.264Z" style="fill:rgb(74,49,4);fill-rule:nonzero;"/>
        <path d="M346.656,442.69C343.4,447.197 341.548,452.659 341.195,458.368C340.515,469.322 349.111,482.481 360.558,484.053C370.539,485.423 380.979,479.295 385.35,470.379C389.964,460.952 381.121,448.229 371.144,447.072C360.088,445.788 354.902,455.333 357.695,463.051C358.573,465.476 360.777,467.199 362.872,468.489C365.144,470.073 368.026,469.857 369.301,468.023C370.583,466.18 369.776,463.41 367.512,461.837C365.641,460.534 363.379,460.467 361.921,461.5C361.198,460.177 360.772,458.688 360.729,456.962C360.584,450.466 368.671,448.932 373.273,451.187C379.59,454.281 383.336,462.462 382.418,469.151C381.017,479.341 368.147,483.506 359.729,480.111C353.064,477.415 348.19,470.937 345.971,464.302C343.785,457.754 346.04,450.352 349.498,444.506C351.082,441.828 356.485,438.556 360.815,438.178C367.816,437.571 377.736,439.335 382.726,442.257C385.208,443.708 385.546,442.133 383.091,440.429C376.334,435.745 365.313,432.964 360.815,433.738C353.758,434.952 350.388,437.524 346.656,442.69Z" style="fill:rgb(74,49,4);fill-rule:nonzero;"/>
        <path d="M282.281,432.074L216.553,432.074C212.089,432.074 219.567,427.853 221.724,427.853L287.45,427.853C291.916,427.853 284.438,432.074 282.281,432.074Z" style="fill:rgb(74,49,4);fill-rule:nonzero;"/>
        <path d="M387.473,482.637L387.473,580.254C387.473,581.888 382.727,581.775 382.727,580.072L382.727,482.454C382.727,480.819 387.473,480.931 387.473,482.637Z" style="fill:rgb(74,49,4);fill-rule:nonzero;"/>
        <path d="M319.354,427.853C314.89,427.853 320.289,432.074 322.446,432.074C344.355,432.074 317.601,432.074 336.504,432.074C338.662,432.074 346.139,427.853 341.673,427.853L319.354,427.853Z" style="fill:rgb(74,49,4);fill-rule:nonzero;"/>
        <path d="M215.477,438.992L266.809,438.992C268.988,438.992 271.166,438.959 273.343,439.068C278.043,439.304 280.42,443.071 282.168,446.86C282.501,447.582 286.208,446.205 286.032,445.824C283.106,439.485 279.178,437.692 272.381,437.692L218.057,437.692C217.405,437.692 213.723,438.992 215.477,438.992Z" style="fill:rgb(74,49,4);fill-rule:nonzero;"/>
        <path d="M378.066,580.418L378.066,506.259C378.066,499.324 378.16,491.784 371.516,487.365C371.092,487.083 369.526,487.883 369.686,487.989C376.52,492.533 376.135,500.343 376.135,507.403L376.135,580.936C376.135,581.144 378.066,580.898 378.066,580.418Z" style="fill:rgb(74,49,4);fill-rule:nonzero;"/>
    </g>
</svg>
