<?xml version="1.0" encoding="UTF-8"?>
<!--
  border-top-right-centerline.svg
  All transforms flattened. Coordinates in local space, origin top-left.
  No nested transforms — safe to pass directly to _parse_d.
-->
<svg xmlns="http://www.w3.org/2000/svg"
     viewBox="0.250 -0.801 172.000 152.016"
     width="172.0" height="152.0">
  <g fill="none" stroke="#000" stroke-linecap="round" stroke-linejoin="round" stroke-width="0.5">
    <path id="scroll-1" d="M 167.970,7.450 C 162.817,3.649 148.633,-0.801 141.677,0.472 C 132.723,1.823 127.844,5.016 124.003,9.169 C 119.202,14.360 115.401,19.513 110.561,23.705 C 102.801,30.013 91.966,34.439 84.698,27.718 C 79.545,23.916 76.313,18.038 78.156,13.963 C 78.999,9.927 82.800,4.775 89.795,4.501 C 94.791,4.306 98.944,8.147 97.180,14.220 C 96.337,18.256 91.419,20.450 88.304,17.570"/>
    <path id="scroll-2" d="M 165.250,12.215 C 160.250,7.215 148.250,4.215 142.250,5.215 C 135.250,6.215 131.250,9.215 129.250,14.215 C 125.250,20.215 123.250,26.215 123.250,31.215 C 123.250,42.215 131.250,53.215 143.250,55.215 C 153.250,56.215 163.250,50.215 167.250,41.215 C 172.250,32.215 163.250,20.215 153.250,19.215 C 144.250,18.215 138.250,25.215 140.250,33.215 C 141.250,37.215 144.250,40.215 147.250,40.215 C 150.250,40.215 152.250,38.215 152.250,35.215 C 152.250,32.215 149.250,31.215 147.250,33.215"/>
    <path id="bar-top" d="M 8.250,1.215 L 123.250,1.215"/>
    <path id="bar-right" d="M 167.250,60.215 L 167.250,151.215"/>
    <path id="shelf" d="M 0.250,9.215 L 57.250,9.215 C 63.250,9.215 67.250,13.215 69.250,17.215"/>
    <path id="accent" d="M 147.250,145.216 L 147.250,76.976 C 147.250,70.433 142.250,59.216 140.250,59.216"/>
  </g>
</svg>